<svg width="108" height="108" viewBox="0 0 108 108" fill="none" xmlns="http://www.w3.org/2000/svg">
<g filter="url(#filter0_d_701_12)">
<path fill-rule="evenodd" clip-rule="evenodd" d="M104 50C104 77.6142 81.6142 100 54 100C26.3858 100 4 77.6142 4 50C4 22.3858 26.3858 0 54 0C81.6142 0 104 22.3858 104 50ZM54 98.5337C80.8044 98.5337 102.534 76.8044 102.534 50C102.534 23.1956 80.8044 1.46628 54 1.46628C27.1956 1.46628 5.46628 23.1956 5.46628 50C5.46628 76.8044 27.1956 98.5337 54 98.5337Z" fill="#EEEEEE"/>
<path fill-rule="evenodd" clip-rule="evenodd" d="M54.0002 83.7352C72.6315 83.7352 87.7352 68.6315 87.7352 50.0002C87.7352 31.3688 72.6315 16.2651 54.0002 16.2651C35.3688 16.2651 20.2651 31.3688 20.2651 50.0002C20.2651 68.6315 35.3688 83.7352 54.0002 83.7352ZM54.0002 85.2015C73.4413 85.2015 89.2015 69.4413 89.2015 50.0002C89.2015 30.559 73.4413 14.7988 54.0002 14.7988C34.559 14.7988 18.7988 30.559 18.7988 50.0002C18.7988 69.4413 34.559 85.2015 54.0002 85.2015Z" fill="#EEEEEE"/>
<path fill-rule="evenodd" clip-rule="evenodd" d="M34.7665 29.3783H73.4366L53.8209 62.1665L48.8442 53.3238L50.516 52.3829L53.8716 58.3452L70.0535 31.2966H38.054L46.6576 46.5211L44.9875 47.4649L34.7665 29.3783ZM53.8179 37.4168L59.4446 46.4874L57.8144 47.4986L53.8746 41.1474L37.9197 68.704H70.0844L61.039 53.0242L62.7007 52.0656L73.4057 70.6223H34.5923L53.8179 37.4168Z" fill="#EEEEEE"/>
<path fill-rule="evenodd" clip-rule="evenodd" d="M47.9742 3.53906L50.4167 13.5533L45.55 9.70802L42.9302 15.1756L41.0823 5.56674L45.3767 8.95987L47.9742 3.53906ZM45.7625 9.26466L49.6206 12.313L47.8265 4.95724L45.7625 9.26466ZM45.1643 9.40323L41.7968 6.74248L43.1264 13.6563L45.1643 9.40323ZM58.0888 3.89558L60.832 7.23509L58.0466 9.84643L61.325 13.8401L60.9543 14.1444L57.696 10.1752L53.8896 13.7436L53.5616 13.3937L57.391 9.80367L54.9884 6.87681L58.0888 3.89558ZM57.7416 9.47495L60.1763 7.19242L58.0474 4.60072L55.6404 6.91521L57.7416 9.47495Z" fill="#EEEEEE"/>
<path fill-rule="evenodd" clip-rule="evenodd" d="M68.6729 8.31922L69.6252 5.81621L69.1769 5.64568L65.4699 15.3898L65.9182 15.5603L67.6088 11.1163L74.8719 8.92613L74.7335 8.46697L67.8241 10.5505L68.4556 8.8904L73.3919 7.33656L73.2479 6.87911L68.6729 8.31922Z" fill="#EEEEEE"/>
<path fill-rule="evenodd" clip-rule="evenodd" d="M78.7846 10.2571L81.7536 16.9946L77.7434 21.9803L77.3697 21.6797L81.1972 16.9212L78.6587 11.1607L72.7632 18.2759L72.3939 17.97L78.7846 10.2571Z" fill="#EEEEEE"/>
<path fill-rule="evenodd" clip-rule="evenodd" d="M87.8582 21.1894L89.7643 19.9108L89.4972 19.5125L80.8122 25.3378L81.0794 25.7361L83.6469 24.014L87.8582 24.7641V21.1894ZM84.2207 23.6291L87.3786 24.1916V21.511L84.2207 23.6291Z" fill="#EEEEEE"/>
<path fill-rule="evenodd" clip-rule="evenodd" d="M32.8598 10.6373L37.8884 11.5728L37.4156 16.0646L32.3872 15.363L32.8598 10.6373ZM33.285 11.2042L32.9103 14.9517L36.9906 15.5211L37.3651 11.9633L33.285 11.2042ZM27.7554 14.4948L27.7979 14.9725L23.4887 15.3556L29.6553 22.7353L29.2873 23.0429L22.5324 14.9591L27.7554 14.4948Z" fill="#EEEEEE"/>
<path fill-rule="evenodd" clip-rule="evenodd" d="M16.3099 64.6402L22.0019 65.8679L21.9008 66.3367L16.7895 65.2343V70.5255L11.7365 69.5149L11.8305 69.0446L16.3099 69.9405V64.6402Z" fill="#EEEEEE"/>
<path fill-rule="evenodd" clip-rule="evenodd" d="M9.19158 59.8314L13.3755 61.9699L13.1573 62.3969L8.13033 59.8276L11.1722 55.9972L11.5477 56.2954L9.11699 59.3563L18.8251 57.0779L18.9347 57.5448L9.19158 59.8314Z" fill="#EEEEEE"/>
<path fill-rule="evenodd" clip-rule="evenodd" d="M10.3055 47.0335L13.0626 49.5785L15.6569 47.4165L17.8621 51.0486L7.30664 49.6412L10.3055 47.0335ZM8.42277 49.3062L12.6747 49.8731L10.296 47.6773L8.42277 49.3062ZM13.3501 49.9631L16.932 50.4407L15.536 48.1415L13.3501 49.9631Z" fill="#EEEEEE"/>
<path fill-rule="evenodd" clip-rule="evenodd" d="M10.966 33.325L20.3251 36.1104L20.1883 36.5701L11.7538 34.0598L13.2383 38.0185L9.59084 40.5816L18.4109 42.8868L18.2896 43.3508L8.46867 40.784L12.6589 37.8395L10.966 33.325Z" fill="#EEEEEE"/>
<path fill-rule="evenodd" clip-rule="evenodd" d="M18.0224 20.7098L26.5259 25.9685L26.2737 26.3764L23.1029 24.4156L19.3586 25.5856L20.1575 30.1717L22.6133 31.7978L22.3485 32.1977L14.0904 26.7295L18.8139 25.2534L18.0224 20.7098ZM19.2756 25.1091L22.5632 24.0818L18.6781 21.6792L19.2756 25.1091ZM18.8969 25.7299L15.1961 26.8864L19.6072 29.8073L18.8969 25.7299Z" fill="#EEEEEE"/>
<path fill-rule="evenodd" clip-rule="evenodd" d="M21.268 76.9021L26.3678 73.3201L26.6434 73.7125L21.5556 77.2861V83.1545H21.076V77.623L17.7466 79.9615L17.471 79.569L20.7504 77.2656L16.0671 76.0789L16.1849 75.614L21.268 76.9021Z" fill="#EEEEEE"/>
<path fill-rule="evenodd" clip-rule="evenodd" d="M31.3518 78.5248L31.8274 78.4638L32.3259 82.3517L37.6009 81.5661L31.3498 90.8225V85.039L26.1317 86.1429L26.0324 85.6737L31.8294 84.4474V89.2554L36.5934 82.201L31.9124 82.8982L31.3518 78.5248Z" fill="#EEEEEE"/>
<path fill-rule="evenodd" clip-rule="evenodd" d="M42.9715 83.9132L45.0407 87.8082L44.6172 88.0332L43.0853 85.1496L40.1841 94.3711L37.3673 92.0237L37.6743 91.6553L39.9414 93.5445L42.9715 83.9132Z" fill="#EEEEEE"/>
<path fill-rule="evenodd" clip-rule="evenodd" d="M52.6823 85.7702L53.0744 86.0464L49.9286 90.5114L53.7587 93.2327L53.4809 93.6237L49.2614 90.6257L52.6823 85.7702Z" fill="#EEEEEE"/>
<path fill-rule="evenodd" clip-rule="evenodd" d="M56.8793 92.0256L52.8648 89.7173L53.1038 89.3015L57.5625 91.8653L54.4548 96.5269L54.0558 96.2608L56.8793 92.0256Z" fill="#EEEEEE"/>
<path fill-rule="evenodd" clip-rule="evenodd" d="M63.1259 95.6816L61.8549 85.3019L62.331 85.2437L63.6019 95.6233L63.1259 95.6816Z" fill="#EEEEEE"/>
<path fill-rule="evenodd" clip-rule="evenodd" d="M70.9395 87.0454L69.0759 82.8277L69.5145 82.6339L71.4638 87.0454H73.32V87.5249H71.6757L73.5393 91.7426L73.1006 91.9364L71.1514 87.5249H69.2952V87.0454H70.9395Z" fill="#EEEEEE"/>
<path fill-rule="evenodd" clip-rule="evenodd" d="M93.721 25.6073L93.259 31.3814L92.781 31.3432L93.1664 26.5258L91.0356 27.8744V32.1037H90.556V28.178L85.2047 31.5649L84.9482 31.1597L93.721 25.6073Z" fill="#EEEEEE"/>
<path fill-rule="evenodd" clip-rule="evenodd" d="M98.126 35.466L95.4217 40.7517L91.8564 37.5477L90.1748 42.3507L89.7222 42.1922L91.3803 37.4563L88.2 38.1631L88.0959 37.6949L98.126 35.466ZM92.2558 37.2618L97.2346 36.1554L95.2786 39.9783L92.2558 37.2618Z" fill="#EEEEEE"/>
<path fill-rule="evenodd" clip-rule="evenodd" d="M94.0441 44.3666L100.481 49.7129L100.175 50.0818L94.1143 45.0484L90.1361 50.0467L89.7609 49.748L94.0441 44.3666Z" fill="#EEEEEE"/>
<path fill-rule="evenodd" clip-rule="evenodd" d="M89.7453 54.7909L90.15 54.5337L93.4899 59.7233L99.0573 56.9902L99.2686 57.4207L93.7511 60.1293L97.0345 65.2311L96.6312 65.4906L93.3177 60.342L87.618 63.1401L87.4067 62.7096L92.9931 59.9672L89.7453 54.7909Z" fill="#EEEEEE"/>
<path fill-rule="evenodd" clip-rule="evenodd" d="M88.5729 69.6195L85.2635 67.4684L85.5249 67.0663L94.4521 72.869L89.6672 74.1281L88.5729 69.6195ZM89.1589 70.0004L90.018 73.5399L93.2826 72.6808L89.1589 70.0004Z" fill="#EEEEEE"/>
<path fill-rule="evenodd" clip-rule="evenodd" d="M84.641 79.6783L80.228 74.0885L80.6044 73.7913L86.9593 81.8408L86.5829 82.138L84.9775 80.1046L77.8299 81.4036L82.0846 86.6037L81.7134 86.9074L77.2905 81.5016L77.2468 81.5095L75.0391 78.75L75.412 78.4483L75.4136 78.4504L77.4827 80.9792L84.641 79.6783Z" fill="#EEEEEE"/>
<path fill-rule="evenodd" clip-rule="evenodd" d="M48.0499 2.81641L50.8228 14.1853L45.6387 10.0893L42.8306 15.9498L40.7186 4.96762L45.2888 8.57863L48.0499 2.81641ZM58.1103 3.53626L61.1665 7.25683L58.381 9.86823L61.6693 13.874L60.9209 14.4884L57.6731 10.532L53.8789 14.089L53.2166 13.3825L57.0573 9.78187L54.6565 6.85725L58.1103 3.53626ZM55.973 6.93478L57.7653 9.11815L59.8426 7.17068L58.0267 4.96003L55.973 6.93478ZM46.0677 9.19405L47.7516 5.67989L49.2152 11.681L46.0677 9.19405ZM69.0358 5.33038L69.9409 5.67469L69.0811 7.93466L73.408 6.57263L73.6987 7.49629L68.6423 9.08795L68.2295 10.1731L74.8973 8.16244L75.1768 9.08955L67.7949 11.3155L66.0601 15.8756L65.155 15.5313L69.0358 5.33038ZM42.1612 7.3416L44.8599 9.47384L43.2267 12.8821L42.1612 7.3416ZM78.8491 9.79668L82.0375 17.032L77.781 22.3238L77.0265 21.7169L80.914 16.8838L78.5949 11.6212L72.7959 18.62L72.0502 18.0022L78.8491 9.79668ZM32.6434 10.3484L38.1554 11.3739L37.6325 16.3416L32.121 15.5725L32.6434 10.3484ZM33.5021 11.4931L33.1772 14.7422L36.7744 15.2441L37.0988 12.1623L33.5021 11.4931ZM27.9776 14.2298L28.0633 15.1943L23.9763 15.5576L29.9999 22.7662L29.2569 23.3871L22.0455 14.7571L27.9776 14.2298ZM89.5644 19.1735L90.1038 19.9777L88.103 21.3197V25.0559L83.7015 24.2719L81.0129 26.0752L80.4735 25.271L89.5644 19.1735ZM17.6887 20.2159L26.8627 25.8892L26.3533 26.7128L23.0697 24.6821L19.6365 25.7549L20.3806 30.026L22.9524 31.729L22.4178 32.5364L13.5274 26.6495L18.5368 25.0841L17.6887 20.2159ZM84.8602 23.4947L87.1346 23.8998V21.9692L84.8602 23.4947ZM19.0126 22.1731L19.4689 24.7928L21.9798 24.0081L19.0126 22.1731ZM94.004 25.1392L93.4835 31.6445L92.5183 31.5673L92.8841 26.9939L91.2804 28.009V32.3481H90.312V28.6219L85.1292 31.9021L84.6114 31.0839L94.004 25.1392ZM15.7599 26.9664L19.2695 29.2903L18.7044 26.0462L15.7599 26.9664ZM34.3481 29.1339H73.868L53.8148 62.6533L48.5118 53.2307L50.6095 52.0501L53.8784 57.8584L69.6229 31.541H38.4732L46.991 46.6137L44.8954 47.7979L34.3481 29.1339ZM35.1857 29.6226L45.0805 47.1319L46.325 46.4286L37.6356 31.0522H70.4849L53.8655 58.832L50.4233 52.7157L49.1774 53.4169L53.8277 61.6797L73.006 29.6226H35.1857ZM10.565 32.9505L20.6294 35.9459L20.3532 36.874L12.1555 34.4342L13.5339 38.1097L10.163 40.4784L18.7095 42.7122L18.4646 43.649L7.89724 40.8871L12.3641 37.7482L10.565 32.9505ZM98.5806 35.1147L95.4949 41.1458L91.9663 37.9746L90.3251 42.6621L89.4112 42.3421L91.0049 37.7902L88.0148 38.4546L87.8047 37.5094L98.5806 35.1147ZM92.7726 37.3973L95.2061 39.5843L96.7807 36.5067L92.7726 37.3973ZM53.811 36.9416L59.7815 46.5663L57.736 47.8351L53.8822 41.6226L38.3439 68.4596H69.6617L60.7056 52.9346L62.7906 51.7318L73.8292 70.8667H34.1688L53.811 36.9416ZM53.8255 37.8921L35.0166 70.3779H72.983L62.6115 52.3994L61.3732 53.1138L70.5079 68.9484H37.4962L53.8677 40.6721L57.8937 47.1622L59.1085 46.4086L53.8255 37.8921ZM94.0086 44.0192L100.826 49.681L100.207 50.4259L94.1505 45.3958L90.1756 50.3901L89.4179 49.787L94.0086 44.0192ZM10.3108 46.7054L13.0712 49.2535L15.7189 47.0471L18.3364 51.3583L6.73828 49.8119L10.3108 46.7054ZM8.9919 49.1355L11.9418 49.5288L10.2915 48.0054L8.9919 49.1355ZM13.9346 49.7945L16.4584 50.131L15.4748 48.511L13.9346 49.7945ZM90.2244 54.1972L93.5779 59.408L99.1694 56.6631L99.5961 57.5324L94.1055 60.2278L97.3726 65.3044L96.5583 65.8284L93.2304 60.6573L87.5067 63.4672L87.08 62.5979L92.6423 59.8673L89.4095 54.715L90.2244 54.1972ZM90.3776 55.3383L93.3397 60.0592L93.3975 60.0308L90.3776 55.3383ZM11.1331 55.6538L11.8915 56.256L9.74592 58.9578L19.0075 56.7842L19.2288 57.7269L9.89654 59.9171L13.7047 61.8635L13.264 62.7258L7.75372 59.9094L11.1331 55.6538ZM16.0659 64.3375L22.2927 65.6805L22.0885 66.6271L17.0342 65.537V70.8236L11.4493 69.7066L11.6392 68.757L16.0659 69.6424V64.3375ZM85.4535 66.7282L95.0484 72.9648L89.4889 74.4279L88.3587 69.7715L84.9258 67.5401L85.4535 66.7282ZM89.5418 70.5405L90.1971 73.2402L92.6871 72.5849L89.5418 70.5405ZM26.4277 72.9796L26.9843 73.7721L21.8003 77.4131V83.3989H20.832V78.0933L17.6875 80.3019L17.1309 79.5095L20.1746 77.3717L15.7705 76.2557L16.0084 75.3171L21.2197 76.6376L26.4277 72.9796ZM80.6452 73.4481L87.3029 81.8812L86.5429 82.4812L84.8771 80.3713L78.2821 81.5698L82.4289 86.6381L81.6794 87.2513L77.1929 81.7678L77.1474 81.7761L74.6969 78.7129L75.4485 78.1048L75.6022 78.2944L75.6032 78.2956L75.6039 78.2965L77.5811 80.713L84.1976 79.5106L79.8851 74.0481L80.6452 73.4481ZM75.7525 79.25L77.3469 81.243L77.3785 81.2373L75.7525 79.25ZM32.0391 78.1903L32.537 82.0733L38.1147 81.2425L31.1058 91.621V85.3405L25.9435 86.4325L25.7431 85.4852L32.0742 84.1459V88.4569L36.0804 82.5245L31.7022 83.1766L31.0787 78.3134L32.0391 78.1903ZM69.6397 82.3116L71.6234 86.801H73.5647V87.7693H72.0512L73.862 91.8673L72.9762 92.2587L70.9926 87.7693H69.0512V86.801H70.5647L68.754 82.703L69.6397 82.3116ZM42.9139 83.2832L45.3715 87.9094L44.5164 88.3636L43.1436 85.7796L40.3082 94.7923L37.0235 92.055L37.6434 91.3111L39.8181 93.1234L42.9139 83.2832ZM62.5442 84.9714L63.8746 95.8362L62.9134 95.9538L61.5831 85.0891L62.5442 84.9714ZM52.6237 85.4297L53.4153 85.9874L50.2689 90.4532L54.0998 93.1751L53.5389 93.9645L48.9218 90.6839L52.6237 85.4297ZM53.0142 88.9679L57.9111 91.7836L54.523 96.8658L53.7173 96.3286L56.5315 92.1073L52.5315 89.8073L53.0142 88.9679Z" fill="#EEEEEE"/>
</g>
<defs>
<filter id="filter0_d_701_12" x="0" y="0" width="108" height="108" filterUnits="userSpaceOnUse" color-interpolation-filters="sRGB">
<feFlood flood-opacity="0" result="BackgroundImageFix"/>
<feColorMatrix in="SourceAlpha" type="matrix" values="0 0 0 0 0 0 0 0 0 0 0 0 0 0 0 0 0 0 127 0" result="hardAlpha"/>
<feOffset dy="4"/>
<feGaussianBlur stdDeviation="2"/>
<feColorMatrix type="matrix" values="0 0 0 0 0 0 0 0 0 0 0 0 0 0 0 0 0 0 0.25 0"/>
<feBlend mode="normal" in2="BackgroundImageFix" result="effect1_dropShadow_701_12"/>
<feBlend mode="normal" in="SourceGraphic" in2="effect1_dropShadow_701_12" result="shape"/>
</filter>
</defs>
</svg>
